<?xml version="1.0" standalone="no"?>
<!DOCTYPE svg PUBLIC "-//W3C//DTD SVG 20010904//EN"
 "http://www.w3.org/TR/2001/REC-SVG-20010904/DTD/svg10.dtd">
<svg version="1.0" xmlns="http://www.w3.org/2000/svg"
 width="480.000000pt" height="446.000000pt" viewBox="0 0 480.000000 446.000000"
 preserveAspectRatio="xMidYMid meet">

<g transform="translate(0.000000,446.000000) scale(0.100000,-0.100000)"
fill="#000000" stroke="none">
<path d="M1313 4083 c-13 -2 -23 -10 -23 -16 0 -7 -9 -23 -20 -37 -25 -32 -25
-55 0 -87 11 -14 20 -31 20 -38 0 -14 62 -23 116 -17 29 4 32 6 19 19 -9 8
-15 33 -15 58 0 29 -5 45 -15 49 -22 8 -19 47 5 53 11 3 17 9 14 14 -5 9 -60
10 -101 2z"/>
<path d="M1250 3695 l0 -55 114 0 c127 0 126 0 126 71 l0 39 -120 0 -120 0 0
-55z"/>
<path d="M688 3500 c-9 -6 -60 -53 -112 -106 l-96 -96 0 -783 c0 -653 2 -784
14 -794 7 -6 16 -24 19 -40 7 -31 47 -81 66 -81 6 0 11 -6 11 -14 0 -9 20 -15
61 -20 90 -9 1572 -7 1587 2 9 7 12 48 10 173 l-3 164 -230 5 c-210 5 -230 6
-233 23 -4 18 42 67 148 157 29 25 59 51 66 58 7 6 15 12 19 12 3 0 20 16 38
35 17 19 35 35 38 35 3 0 40 33 83 73 l76 72 -2 565 -3 565 -770 2 c-490 2
-776 -1 -787 -7z m1234 -168 c9 -4 27 -20 40 -37 21 -27 23 -39 23 -145 0
-139 -12 -164 -84 -174 -58 -8 -1025 -8 -1074 1 -22 3 -41 13 -45 22 -3 9 -12
22 -20 30 -10 11 -13 40 -10 125 3 99 6 115 26 141 13 17 31 33 40 37 9 4 258
7 552 7 294 0 543 -3 552 -7z m-423 -566 c10 -9 21 -16 26 -16 17 0 86 -86
111 -138 22 -46 25 -66 22 -118 -2 -41 -10 -70 -21 -82 -9 -10 -17 -25 -17
-32 0 -19 -69 -100 -85 -100 -8 0 -18 -7 -23 -17 -9 -15 -82 -33 -142 -35 -50
-1 -133 20 -142 36 -5 9 -15 16 -23 16 -18 0 -66 60 -100 123 -29 55 -35 158
-11 192 7 11 17 30 20 43 8 25 88 112 104 112 5 0 15 6 22 14 16 20 50 25 153
21 64 -2 93 -7 106 -19z"/>
<path d="M922 3153 c3 -46 4 -48 36 -51 44 -4 62 12 62 59 l0 39 -51 0 -50 0
3 -47z"/>
<path d="M1180 3156 c0 -46 10 -56 55 -56 45 0 55 10 55 56 l0 44 -55 0 -55 0
0 -44z"/>
<path d="M1450 3162 c0 -43 14 -62 46 -62 44 0 54 10 54 56 l0 44 -50 0 -50 0
0 -38z"/>
<path d="M1722 3153 l3 -48 43 -3 42 -3 0 50 0 51 -46 0 -45 0 3 -47z"/>
<path d="M2507 3503 c-4 -3 -7 -273 -7 -598 l0 -592 -82 -77 c-217 -201 -212
-186 -60 -186 64 0 123 -4 129 -8 9 -6 13 -70 15 -242 l3 -235 825 0 825 0 45
45 45 45 3 737 2 738 -154 0 c-152 0 -155 0 -185 26 l-31 26 0 164 0 164 -683
0 c-376 0 -687 -3 -690 -7z m1234 -184 c18 -18 21 -30 17 -89 -2 -37 -10 -75
-17 -84 -12 -14 -62 -16 -486 -16 l-474 0 -20 26 c-35 45 -27 153 12 172 14 7
184 11 485 11 457 1 462 1 483 -20z m258 -333 c8 -9 11 -44 9 -97 -3 -79 -4
-83 -28 -90 -43 -12 -1163 -10 -1198 2 -33 11 -42 31 -42 100 0 32 6 55 21 73
l20 26 604 0 c505 0 604 -2 614 -14z m-19 -331 c29 -15 30 -17 30 -95 0 -68
-3 -81 -19 -90 -13 -6 -223 -10 -613 -10 -688 0 -638 -7 -638 95 0 58 2 65 31
89 l31 26 574 0 c496 0 579 -2 604 -15z m18 -354 c9 -5 12 -30 10 -87 l-3 -79
-617 -3 c-551 -2 -618 0 -632 14 -22 21 -22 127 0 148 14 14 84 16 622 16 334
0 613 -4 620 -9z m-14 -331 c25 -9 26 -13 26 -85 0 -123 46 -115 -633 -115
l-568 0 -35 27 c-34 26 -35 27 -32 92 3 58 6 67 28 78 31 16 1173 19 1214 3z"/>
<path d="M760 992 c-58 -11 -92 -45 -97 -96 -8 -64 2 -91 37 -106 16 -7 30
-16 30 -21 0 -5 16 -9 37 -9 20 0 60 -12 90 -27 44 -23 53 -32 53 -54 0 -54
-81 -81 -117 -39 -14 16 -30 20 -75 20 -53 0 -58 -2 -58 -22 0 -32 54 -64 115
-71 70 -8 181 7 200 27 9 9 21 16 26 16 5 0 9 7 9 15 0 9 7 18 15 21 10 4 15
20 15 48 0 34 -6 48 -32 73 -20 19 -51 36 -77 42 -24 5 -48 14 -54 20 -6 6
-22 11 -37 11 -41 0 -52 13 -48 56 3 38 4 39 42 42 28 2 42 -1 48 -12 7 -12
25 -16 68 -16 51 0 60 3 60 18 0 10 -11 29 -24 41 -21 20 -37 24 -108 26 -46
2 -99 0 -118 -3z"/>
<path d="M2870 979 c0 -5 -16 -17 -35 -25 -19 -8 -35 -19 -35 -25 0 -6 -9 -22
-20 -36 -17 -21 -20 -41 -20 -113 0 -72 3 -92 20 -113 11 -14 20 -32 20 -41 0
-9 5 -16 10 -16 6 0 24 -10 40 -22 28 -20 41 -22 171 -21 78 1 145 5 150 10 7
7 13 114 10 191 l-1 32 -80 0 -80 0 0 -33 c0 -27 5 -35 30 -44 42 -16 48 -39
18 -69 -16 -16 -36 -25 -60 -26 -39 -1 -88 24 -88 46 0 7 -7 19 -15 26 -10 9
-15 32 -15 76 0 42 5 67 15 78 8 8 15 21 15 29 0 9 16 25 35 37 l35 22 34 -21
c24 -15 50 -21 95 -21 33 0 61 4 61 10 0 5 -14 25 -31 45 l-31 35 -124 0 c-80
0 -124 -4 -124 -11z"/>
<path d="M1220 900 c0 -5 -12 -13 -27 -16 -35 -8 -53 -22 -53 -40 0 -10 16
-14 60 -14 50 0 61 3 71 21 9 17 17 20 42 15 17 -4 34 -11 38 -17 3 -6 6 -59
5 -118 l-1 -106 -33 -3 c-41 -4 -62 12 -62 47 0 30 9 46 30 54 8 3 -20 6 -62
6 -69 1 -80 -2 -104 -24 -22 -20 -25 -30 -20 -58 3 -19 17 -44 31 -57 21 -20
32 -22 90 -18 50 3 69 9 77 21 11 21 36 22 58 2 21 -19 79 -30 112 -22 23 6
23 7 18 134 -6 140 -9 147 -77 186 -34 19 -193 25 -193 7z"/>
<path d="M1812 880 c-36 -35 -75 -39 -95 -9 -12 17 -23 20 -73 17 l-59 -3 0
-155 0 -155 78 -3 77 -3 0 105 c0 72 4 107 12 112 13 9 69 7 77 -2 4 -3 8 -51
11 -107 l5 -102 58 -3 57 -3 0 98 c0 54 4 104 9 111 5 8 23 12 47 10 l39 -3 5
-105 5 -105 60 0 60 0 3 115 c4 154 0 174 -44 199 -48 28 -73 26 -114 -9 -45
-37 -77 -38 -114 0 -37 38 -67 38 -104 0z"/>
<path d="M3376 895 c-11 -8 -26 -15 -34 -15 -13 0 -62 -44 -62 -56 0 -3 -9
-25 -20 -49 l-20 -43 26 -56 c14 -31 35 -61 47 -68 12 -6 28 -18 36 -26 22
-22 219 -13 232 11 6 9 17 17 24 17 8 0 15 4 15 9 0 5 3 16 6 25 5 14 -4 16
-59 16 -56 0 -65 -3 -70 -20 -4 -14 -14 -20 -35 -20 -53 0 -63 20 -58 123 2
51 5 93 5 94 1 2 12 10 26 19 25 16 65 11 65 -8 0 -6 8 -20 17 -30 14 -16 15
-23 5 -39 -12 -18 -9 -19 64 -19 l76 0 -23 38 c-31 51 -61 82 -80 82 -8 0 -24
7 -35 15 -25 19 -123 19 -148 0z"/>
<path d="M3940 880 c-42 -35 -61 -37 -85 -10 -16 17 -29 20 -74 18 l-56 -3 0
-155 0 -155 49 -3 c90 -6 96 -1 96 76 0 133 14 163 65 140 30 -14 34 -28 37
-133 l3 -80 63 -3 62 -3 0 136 0 136 -36 35 c-46 42 -78 44 -124 4z"/>
<path d="M2284 875 c-4 -8 -5 -68 -3 -132 4 -110 6 -120 29 -143 21 -21 34
-25 86 -25 45 0 67 5 81 18 25 22 38 22 61 -4 16 -16 29 -20 73 -17 l54 3 0
155 0 155 -75 0 -75 0 -3 -107 c-3 -113 -12 -136 -52 -123 -18 6 -20 14 -20
115 0 124 3 120 -91 120 -44 0 -61 -4 -65 -15z"/>
</g>
</svg>
