<?xml version="1.0" standalone="no"?>
<!DOCTYPE svg PUBLIC "-//W3C//DTD SVG 20010904//EN"
 "http://www.w3.org/TR/2001/REC-SVG-20010904/DTD/svg10.dtd">
<svg version="1.0" xmlns="http://www.w3.org/2000/svg"
 width="622.000000pt" height="614.000000pt" viewBox="0 0 622.000000 614.000000"
 preserveAspectRatio="xMidYMid meet">

<g transform="translate(0.000000,614.000000) scale(0.100000,-0.100000)"
fill="#000000" stroke="none">
<path d="M675 5100 c-3 -5 -14 -10 -23 -10 -32 0 -90 -49 -111 -93 -35 -72
-24 -140 33 -201 44 -47 68 -56 151 -56 l79 0 403 -406 c222 -223 403 -410
403 -415 0 -5 6 -9 13 -10 6 0 30 -22 52 -49 22 -27 45 -49 52 -49 6 -1 13 -5
15 -11 2 -5 34 -41 73 -81 l69 -71 4 -70 c3 -39 1 -281 -3 -537 l-7 -466 -536
-538 -537 -537 -78 0 c-54 0 -87 -5 -110 -18 -86 -46 -123 -121 -110 -221 8
-58 78 -136 136 -152 92 -25 191 12 238 87 18 30 23 52 23 106 l0 67 123 123
124 123 54 -58 c29 -31 57 -57 62 -57 11 0 643 633 643 644 0 5 -17 32 -39 60
-37 49 -38 52 -22 76 9 13 53 61 99 107 l82 82 -2 640 -3 640 -97 96 c-61 59
-98 103 -98 116 0 11 16 41 35 66 19 25 35 49 35 53 0 15 -615 620 -630 620
-6 0 -33 -22 -60 -50 -27 -27 -54 -50 -60 -50 -14 0 -21 6 -150 132 l-110 108
0 70 c0 57 -4 77 -22 102 -37 51 -51 62 -105 81 -58 19 -79 21 -88 7z m65 -75
c7 -8 17 -15 23 -15 28 0 47 -34 47 -84 0 -70 -34 -106 -100 -106 -44 0 -90
21 -90 41 0 6 -7 17 -15 25 -18 19 -19 58 -2 76 7 7 16 21 20 31 3 9 11 17 17
17 6 0 18 7 26 15 9 8 26 15 38 15 13 0 29 -7 36 -15z m37 -3674 c32 -37 29
-67 -11 -107 -39 -39 -66 -42 -106 -14 -56 40 -47 132 14 149 43 12 77 3 103
-28z"/>
<path d="M5345 5092 c-22 -9 -57 -33 -77 -54 -36 -37 -38 -42 -38 -107 0 -81
1 -79 -146 -223 -58 -57 -107 -104 -109 -106 -7 -8 -53 24 -93 64 l-43 44
-160 -160 c-89 -88 -165 -160 -170 -160 -5 0 -9 -7 -9 -15 0 -8 -4 -15 -8 -15
-5 0 -72 -62 -149 -139 l-140 -139 32 -43 c56 -78 56 -81 -49 -188 -52 -53
-99 -106 -105 -118 -8 -15 -11 -201 -11 -637 l0 -615 94 -94 c51 -52 97 -104
101 -116 5 -16 -1 -33 -20 -62 -15 -21 -32 -39 -36 -39 -37 0 24 -71 305 -354
173 -174 319 -316 326 -316 7 0 34 23 59 50 26 28 53 50 62 50 8 0 65 -51 127
-113 l112 -114 0 -56 c0 -101 54 -183 137 -206 114 -32 209 12 254 117 24 56
24 89 -1 144 -42 93 -98 128 -208 128 l-77 0 -542 543 -543 542 0 530 0 530
242 245 c133 135 376 381 540 548 l299 302 83 0 c68 0 88 4 109 20 14 11 30
20 35 20 5 0 13 8 16 18 3 9 13 28 22 42 11 19 14 43 10 96 -4 66 -7 75 -40
107 -19 19 -49 38 -65 42 -17 4 -33 11 -36 16 -9 13 -44 10 -90 -9z m92 -63
c6 -6 22 -17 35 -23 20 -10 23 -20 26 -74 3 -55 0 -66 -20 -87 -33 -35 -113
-35 -145 -1 -13 13 -23 31 -23 39 0 9 -4 18 -9 21 -4 3 -3 26 3 51 10 36 19
50 47 65 39 22 70 25 86 9z m31 -3672 c33 -30 30 -85 -6 -120 -35 -33 -77 -35
-115 -3 -25 20 -28 28 -25 72 3 45 6 51 37 66 40 20 75 15 109 -15z"/>
<path d="M2741 3548 c-86 -85 -78 -49 -85 -380 -5 -272 -7 -266 79 -244 33 8
92 20 130 26 240 39 248 40 262 29 15 -13 19 -173 4 -212 -8 -21 -19 -26 -88
-36 -112 -16 -221 -35 -370 -67 -21 -4 -23 -10 -23 -78 0 -50 4 -77 14 -85 9
-8 123 -10 402 -9 l389 3 3 355 c2 195 0 375 -3 399 -6 41 -8 43 -33 37 -15
-3 -56 -11 -92 -16 -36 -6 -85 -15 -110 -21 -24 -5 -76 -14 -115 -19 -38 -5
-79 -12 -91 -16 -35 -10 -54 20 -54 86 0 34 5 62 12 66 14 9 71 22 153 35 33
6 89 16 125 24 36 8 91 17 123 20 77 9 75 24 -12 108 l-69 67 -239 0 -238 0
-74 -72z"/>
</g>
</svg>
